<svg width="35" height="36" viewBox="0 0 35 36" fill="none" xmlns="http://www.w3.org/2000/svg">
<rect x="0.5" y="1" width="34" height="34" rx="4.5" fill="white" fill-opacity="0.24"/>
<path d="M24.2676 11.1074L21.3379 10.4043C20.8984 10.3164 20.459 10.5215 20.2832 10.9316L18.9062 14.125C18.7598 14.5059 18.8477 14.9453 19.1699 15.1797L20.752 16.4688C19.7559 18.5195 18.1152 20.1602 16.0645 21.1562L14.7754 19.5742C14.541 19.252 14.1016 19.1641 13.7207 19.3105L10.5273 20.6875C10.1465 20.8633 9.91211 21.3027 10 21.7129L10.7031 24.6719C10.791 25.082 11.1426 25.375 11.582 25.375C18.9648 25.375 25 19.3984 25 11.9863C25 11.5469 24.707 11.1953 24.2676 11.1074ZM11.6113 24.4375L10.9375 21.5371L14.0723 20.1895L15.8301 22.3281C18.8477 20.8926 20.4883 19.252 21.9238 16.2344L19.7852 14.4766L21.1328 11.3418L24.0332 12.0156C24.0332 18.8711 18.4668 24.4375 11.6113 24.4375Z" fill="white"/>
<rect x="0.5" y="1" width="34" height="34" rx="4.5" stroke="white"/>
</svg>
